#!OML:ASF H:\Punching\Project 1\Capture day 1\Session 1\female.ASF
:FULLY-SPECIFIED
:DEGREES
2114
root 4.12476 14.6032 -1.8939 18.2991 18.4825 7.21262
lowerback -0.913317 -0.419791 -2.92797
upperback -7.60455 -0.613331 0.0969294
thorax -7.39408 -0.0939331 1.77003
lowerneck -15.328 -2.13755 2.90068
upperneck 30.496 -2.91548 -2.97575
head 12.5583 -1.30128 -2.06891
rclavicle 2.54351e-014 3.18055e-015
rhumerus 17.2411 10.526 -63.7225
rradius 131.053
rwrist -10.2299
rhand -30.6589 6.37166
rfingers 7.12502
rthumb -3.95374 -23.5714
lclavicle 2.54351e-014 3.18055e-015
lhumerus 8.99077 -30.3299 74.3232
lradius 135.793
lwrist -1.57901
lhand -24.3369 2.89384
lfingers 7.12502
lthumb 2.15197 32.8627
rfemur -49.3054 -9.34485 -0.893796
rtibia 45.6391
rfoot -5.11345 -24.6375
rtoes 1.78825
lfemur -7.23048 -12.053 -18.3885
ltibia 23.5923
lfoot -29.6047 23.9761
ltoes -9.21566
2115
root 4.13143 14.6051 -1.90032 18.3175 18.3369 7.24322
lowerback -0.929208 -0.455129 -3.06956
upperback -7.63075 -0.665396 0.100062
thorax -7.41024 -0.109988 1.85532
lowerneck -15.3278 -2.08158 2.99085
upperneck 30.4546 -2.84882 -3.01817
head 12.5414 -1.2683 -2.08989
rclavicle -1.10046e-014 2.22639e-014
rhumerus 17.1605 10.567 -63.5767
rradius 131.143
rwrist -10.63
rhand -30.6213 6.38997
rfingers 7.12502
rthumb -3.91745 -23.5538
lclavicle -1.10046e-014 2.22639e-014
lhumerus 9.02995 -30.2498 74.1898
lradius 135.719
lwrist -1.6221
lhand -24.3018 2.91557
lfingers 7.12502
lthumb 2.18588 32.8841
rfemur -49.3389 -9.19343 -1.00997
rtibia 45.5261
rfoot -4.85539 -24.8264
rtoes 1.38336
lfemur -7.21849 -12.0224 -18.5057
ltibia 23.5637
lfoot -29.595 24.0623
ltoes -9.29497
2116
root 4.13946 14.6074 -1.90666 18.3194 18.171 7.24902
lowerback -0.926335 -0.484583 -3.16085
upperback -7.65608 -0.70845 0.10671
thorax -7.43677 -0.124529 1.91586
lowerneck -15.3381 -2.02314 3.07999
upperneck 30.4192 -2.77077 -3.08524
head 12.5292 -1.23361 -2.11885
rclavicle -1.51045e-014 -5.56597e-015
rhumerus 17.0911 10.5894 -63.4317
rradius 131.248
rwrist -11.1342
rhand -30.5532 6.4402
rfingers 7.12502
rthumb -3.85171 -23.5047
lclavicle -1.51045e-014 -5.56597e-015
lhumerus 9.06386 -30.1535 74.0689
lradius 135.631
lwrist -1.68818
lhand -24.2737 2.92441
lfingers 7.12502
lthumb 2.21302 32.8927
rfemur -49.3773 -9.0736 -1.08414
rtibia 45.409
rfoot -4.5877 -24.9552
rtoes 0.973085
lfemur -7.19625 -11.9949 -18.6147
ltibia 23.5534
lfoot -29.5982 24.1761
ltoes -9.37152
2117
root 4.14872 14.6102 -1.91261 18.3035 17.986 7.22315
lowerback -0.908236 -0.507746 -3.19718
upperback -7.68399 -0.741606 0.118477
thorax -7.47553 -0.137284 1.95072
lowerneck -15.3423 -1.96332 3.16956
upperneck 30.3852 -2.68342 -3.17495
head 12.5162 -1.19774 -2.15509
rclavicle -1.79143e-014 -1.98785e-014
rhumerus 17.0214 10.593 -63.291
rradius 131.35
rwrist -11.663
rhand -30.4722 6.52781
rfingers 7.12502
rthumb -3.77346 -23.4185
lclavicle -1.79143e-014 -1.98785e-014
lhumerus 9.07893 -30.0573 73.9669
lradius 135.539
lwrist -1.76022
lhand -24.2664 2.94268
lfingers 7.12502
lthumb 2.22008 32.9109
rfemur -49.4179 -8.97104 -1.11649
rtibia 45.286
rfoot -4.35034 -25.0332
rtoes 0.656557
lfemur -7.16206 -11.9677 -18.7067
ltibia 23.5583
lfoot -29.6144 24.3149
ltoes -9.44738
2118
root 4.15906 14.6134 -1.91791 18.2718 17.7832 7.16386
lowerback -0.880238 -0.526648 -3.18143
upperback -7.71253 -0.767199 0.139049
thorax -7.52119 -0.149242 1.96543
lowerneck -15.3483 -1.90015 3.25811
upperneck 30.3531 -2.58414 -3.28631
head 12.5047 -1.15957 -2.19779
rclavicle 3.75974e-014 -1.51076e-014
rhumerus 16.9599 10.5794 -63.154
rradius 131.436
rwrist -12.1406
rhand -30.3947 6.61711
rfingers 7.12502
rthumb -3.69858 -23.3305
lclavicle 3.75974e-014 -1.51076e-014
lhumerus 9.07325 -29.9634 73.8883
lradius 135.449
lwrist -1.81879
lhand -24.2864 2.96255
lfingers 7.12502
lthumb 2.20073 32.9309
rfemur -49.4624 -8.87495 -1.11407
rtibia 45.1599
rfoot -4.16174 -25.0694
rtoes 0.481401
lfemur -7.11543 -11.9386 -18.777
ltibia 23.5733
lfoot -29.6466 24.4727
ltoes -9.51129
2119
root 4.17015 14.6165 -1.92217 18.2328 17.5597 7.08331
lowerback -0.854994 -0.545042 -3.13504
upperback -7.7323 -0.790302 0.169599
thorax -7.55586 -0.161962 1.9733
lowerneck -15.3835 -1.82973 3.34949
upperneck 30.3232 -2.46948 -3.41957
head 12.5007 -1.11724 -2.24779
rclavicle 3.22029e-014 -1.11319e-014
rhumerus 16.9263 10.5458 -63.0175
rradius 131.49
rwrist -12.5071
rhand -30.3369 6.72059
rfingers 7.12502
rthumb -3.64284 -23.228
lclavicle 3.22029e-014 -1.11319e-014
lhumerus 9.067 -29.8691 73.8236
lradius 135.362
lwrist -1.85474
lhand -24.3433 2.985
lfingers 7.12502
lthumb 2.14582 32.954
rfemur -49.5207 -8.79169 -1.08911
rtibia 45.0379
rfoot -4.03831 -25.0598
rtoes 0.46911
lfemur -7.05877 -11.9046 -18.8356
ltibia 23.593
lfoot -29.6945 24.6437
ltoes -9.55942
2120
root 4.18161 14.6194 -1.92514 18.1936 17.311 6.98704
lowerback -0.841553 -0.562698 -3.06996
upperback -7.74762 -0.810737 0.209034
thorax -7.57896 -0.174557 1.97975
lowerneck -15.4255 -1.7518 3.44538
upperneck 30.2841 -2.34017 -3.57058
head 12.4949 -1.07049 -2.30311
rclavicle 3.71025e-014 3.18055e-015
rhumerus 16.9102 10.4969 -62.8813
rradius 131.51
rwrist -12.7282
rhand -30.3216 6.81065
rfingers 7.12502
rthumb -3.62801 -23.1382
lclavicle 3.71025e-014 3.18055e-015
lhumerus 9.04828 -29.7827 73.78
lradius 135.284
lwrist -1.85769
lhand -24.4368 2.99612
lfingers 7.12502
lthumb 2.05549 32.966
rfemur -49.605 -8.73095 -1.04146
rtibia 44.9321
rfoot -3.98976 -24.989
rtoes 0.598758
lfemur -6.99443 -11.8628 -18.8863
ltibia 23.6107
lfoot -29.7588 24.8257
ltoes -9.57315
2121
root 4.19309 14.6222 -1.92669 18.1613 17.0362 6.88618
lowerback -0.845165 -0.579785 -3.00064
upperback -7.76263 -0.82935 0.253096
thorax -7.5919 -0.186558 1.98838
lowerneck -15.4574 -1.66824 3.54729
upperneck 30.2302 -2.2008 -3.73311
head 12.4816 -1.02034 -2.36179
rclavicle -7.19628e-014 1.59028e-015
rhumerus 16.8978 10.4343 -62.7476
rradius 131.493
rwrist -12.7946
rhand -30.3528 6.88293
rfingers 7.12502
rthumb -3.65815 -23.0654
lclavicle -7.19628e-014 1.59028e-015
lhumerus 9.01266 -29.7153 73.7618
lradius 135.211
lwrist -1.82698
lhand -24.5703 2.96147
lfingers 7.12502
lthumb 1.92662 32.9325
rfemur -49.7286 -8.72585 -0.964423
rtibia 44.8584
rfoot -3.97757 -24.8212
rtoes 0.725372
lfemur -6.92422 -11.8151 -18.9389
ltibia 23.6192
lfoot -29.8373 25.0192
ltoes -9.55793
2122
root 4.20421 14.6245 -1.92672 18.1412 16.7275 6.78917
lowerback -0.870863 -0.593733 -2.94037
upperback -7.77966 -0.843246 0.298189
thorax -7.59442 -0.195748 2.00262
lowerneck -15.467 -1.58098 3.65379
upperneck 30.1563 -2.05539 -3.90089
head 12.4561 -0.967918 -2.42136
rclavicle 3.71952e-014 2.38542e-015
rhumerus 16.8794 10.3598 -62.6148
rradius 131.446
rwrist -12.7283
rhand -30.4287 6.89568
rfingers 7.12502
rthumb -3.73146 -23.0514
lclavicle 3.71952e-014 2.38542e-015
lhumerus 8.95228 -29.6774 73.7734
lradius 135.148
lwrist -1.77548
lhand -24.7212 2.90696
lfingers 7.12502
lthumb 1.78079 32.8793
rfemur -49.9079 -8.80189 -0.848653
rtibia 44.8332
rfoot -3.96898 -24.5155
rtoes 0.720503
lfemur -6.84727 -11.7639 -19.0032
ltibia 23.6121
lfoot -29.9317 25.2307
ltoes -9.49423
2123
root 4.2149 14.6264 -1.92533 18.1368 16.3839 6.70437
lowerback -0.919535 -0.605843 -2.89744
upperback -7.80118 -0.854629 0.342324
thorax -7.58853 -0.202673 2.02514
lowerneck -15.4476 -1.49067 3.76175
upperneck 30.0639 -1.90506 -4.06969
head 12.4177 -0.913381 -2.47973
rclavicle -1.39214e-014 1.11319e-014
rhumerus 16.8507 10.2773 -62.4836
rradius 131.376
rwrist -12.5778
rhand -30.5283 6.85851
rfingers 7.12502
rthumb -3.82767 -23.0869
lclavicle -1.39214e-014 1.11319e-014
lhumerus 8.86369 -29.6673 73.8181
lradius 135.095
lwrist -1.71588
lhand -24.8717 2.83117
lfingers 7.12502
lthumb 1.63552 32.8047
rfemur -50.1556 -8.99562 -0.681801
rtibia 44.8709
rfoot -3.92019 -24.031
rtoes 0.427465
lfemur -6.76227 -11.713 -19.089
ltibia 23.5849
lfoot -30.0356 25.4674
ltoes -9.40207
2124
root 4.22492 14.6277 -1.92276 18.1464 16.0026 6.63389
lowerback -0.98435 -0.616924 -2.87808
upperback -7.82765 -0.865024 0.386292
thorax -7.57859 -0.207571 2.06042
lowerneck -15.4028 -1.39645 3.87214
upperneck 29.9573 -1.74931 -4.23858
head 12.3692 -0.856154 -2.53688
rclavicle 9.12445e-014 1.82882e-014
rhumerus 16.809 10.1935 -62.3526
rradius 131.3
rwrist -12.4006
rhand -30.6387 6.78402
rfingers 7.12502
rthumb -3.93427 -23.1594
lclavicle 9.12445e-014 1.82882e-014
lhumerus 8.74407 -29.6787 73.8981
lradius 135.057
lwrist -1.66216
lhand -25.0073 2.73572
lfingers 7.12502
lthumb 1.50456 32.7102
rfemur -50.4797 -9.31522 -0.457476
rtibia 44.9803
rfoot -3.80565 -23.3563
rtoes -0.237422
lfemur -6.66619 -11.6687 -19.2
ltibia 23.5359
lfoot -30.1499 25.7361
ltoes -9.28432
2125
root 4.23401 14.6282 -1.91929 18.1701 15.5812 6.57816
lowerback -1.05698 -0.627754 -2.8862
upperback -7.8586 -0.875856 0.430542
thorax -7.56882 -0.210814 2.11131
lowerneck -15.3491 -1.29531 3.99265
upperneck 29.8441 -1.58551 -4.41123
head 12.3171 -0.794608 -2.5957
rclavicle -7.65709e-015 -2.22639e-014
rhumerus 16.758 10.1117 -62.2208
rradius 131.225
rwrist -12.2508
rhand -30.7382 6.68073
rfingers 7.12502
rthumb -4.03033 -23.2609
lclavicle -7.65709e-015 -2.22639e-014
lhumerus 8.60694 -29.703 74.0027
lradius 135.034
lwrist -1.63132
lhand -25.117 2.65068
lfingers 7.12502
lthumb 1.39854 32.6258
rfemur -50.8886 -9.75337 -0.176132
rtibia 45.166
rfoot -3.64275 -22.5026
rtoes -1.21879
lfemur -6.56092 -11.6311 -19.3366
ltibia 23.4659
lfoot -30.2768 26.0382
ltoes -9.13715
